<svg height="512pt" viewBox="-32 0 512 512.00038" width="512pt" xmlns="http://www.w3.org/2000/svg"><path d="m443.1875 197.050781c-3.957031 4.558594-9.523438 6.894531-15.117188 6.894531-4.648437 0-9.316406-1.609374-13.101562-4.894531l-24.898438-21.597656v184.519531c0 11.050782-8.953124 20.003906-20.003906 20.003906-11.046875 0-20.003906-8.953124-20.003906-20.003906v-219.226562l-112.875-97.925782c-7.496094-6.5-18.800781-6.5-26.292969 0l-112.875 97.921876v279.242187h308.054688c11.046875 0 20.003906 8.957031 20.003906 20.003906s-8.957031 20.003907-20.003906 20.003907h-162.03125v30.003906c0 11.046875-8.953125 20.003906-20.003907 20.003906-11.046874 0-20.003906-8.957031-20.003906-20.003906v-30.003906h-161.027344c-11.046874 0-20.003906-8.957032-20.003906-20.003907s8.957032-20.003906 20.003906-20.003906h15.003907v-244.53125l-24.898438 21.597656c-8.347656 7.242188-20.980469 6.34375-28.21875-2s-6.34375-20.980469 2-28.21875l177.78125-154.230469c22.441407-19.46875 56.285157-19.46875 78.730469 0l177.777344 154.230469c8.347656 7.238281 9.242187 19.875 2.003906 28.21875zm-258.65625 143.917969c-11.046875 0-20 8.957031-20 20.003906s8.953125 20.003906 20 20.003906h80.015625c11.046875 0 20.003906-8.957031 20.003906-20.003906s-8.957031-20.003906-20.003906-20.003906zm105.519531-110.019531c0 35.847656-29.164062 65.011719-65.011719 65.011719-35.847656 0-65.011718-29.164063-65.011718-65.011719 0-35.847657 29.164062-65.011719 65.011718-65.011719 35.847657 0 65.011719 29.164062 65.011719 65.011719zm-40.003906 0c0-13.785157-11.21875-25.003907-25.007813-25.003907-13.785156 0-25.003906 11.21875-25.003906 25.003907 0 13.789062 11.21875 25.003906 25.003906 25.003906 13.789063 0 25.007813-11.214844 25.007813-25.003906zm0 0"/></svg>