<svg id="Capa_1" enable-background="new 0 0 512 512" height="512" viewBox="0 0 512 512" width="512" xmlns="http://www.w3.org/2000/svg">
    <path d="m256 0c-141.159 0-256 114.841-256 256s114.841 256 256 256 256-114.841 256-256-114.841-256-256-256z" fill="#4ab8f7"/>
    <path d="m256 0v512c141.159 0 256-114.841 256-256s-114.841-256-256-256z" fill="#368dcf"/>
    <path d="m352.543 236.349-83.705-138.529c-2.716-4.496-7.586-7.243-12.838-7.243s-10.122 2.747-12.838 7.243l-83.705 138.529c-3.005 4.972-2.868 11.232.351 16.068s8.943 7.374 14.688 6.527l38.335-5.684v153.162c0 8.284 6.716 15 15 15h56.339c8.284 0 15-6.716 15-15v-153.162l38.336 5.684c5.742.848 11.468-1.691 14.688-6.527 3.217-4.836 3.354-11.096.349-16.068z" fill="#eeeef2"/>
    <path d="m352.543 236.349-83.705-138.529c-2.716-4.496-7.586-7.243-12.838-7.243v330.845h28.169c8.284 0 15-6.716 15-15v-153.162l38.336 5.684c5.742.848 11.468-1.691 14.688-6.527 3.218-4.836 3.355-11.096.35-16.068z" fill="#e1e1e6"/>
</svg>