<svg enable-background="new 0 0 512 512" height="512" viewBox="0 0 512 512" width="512" xmlns="http://www.w3.org/2000/svg"><g><g><path d="m361.786 444.472h-287.615c-1.435 0-2.602-1.167-2.602-2.602v-40.406c0-1.435 1.167-2.603 2.602-2.603h26.521c4.142 0 7.5-3.357 7.5-7.5s-3.358-7.5-7.5-7.5h-5.796l23.074-167.246c.005-.039.01-.077.015-.115 10.626-86.956 62.221-138.87 138.015-138.87 26.351 0 49.777 6.068 69.791 18.028-6.635 8.222-10.62 18.668-10.62 30.032 0 26.416 21.491 47.906 47.906 47.906 7.142 0 13.918-1.582 20.013-4.397 5.157 14.406 8.838 30.263 10.926 47.303.004.037.01.075.015.113l8.71 63.137c.518 3.755 3.733 6.476 7.42 6.476.341 0 .687-.023 1.034-.071 4.104-.566 6.971-4.352 6.405-8.455l-8.703-63.079c-2.398-19.535-6.782-37.684-13.011-54.073 9.284-8.743 15.097-21.131 15.097-34.86 0-26.416-21.491-47.907-47.907-47.907-9.417 0-18.201 2.743-25.616 7.455-16.558-10.698-35.237-17.614-55.778-20.713v-46.923c.001-9.706-7.895-17.602-17.6-17.602h-16.163c-9.706 0-17.602 7.896-17.602 17.602v46.944c-30.611 4.682-57.35 17.902-78.318 38.927-26.317 26.388-43.224 64.819-48.896 111.146l-23.35 169.242h-5.583c-9.706 0-17.602 7.896-17.602 17.603v40.406c0 9.705 7.896 17.602 17.602 17.602h122.286c3.706 29.57 28.986 52.528 59.544 52.528s55.838-22.958 59.543-52.528h46.243c4.142 0 7.5-3.357 7.5-7.5s-3.358-7.5-7.5-7.5zm34.198-318.783c0 18.145-14.762 32.906-32.907 32.906s-32.906-14.762-32.906-32.906c0-18.146 14.762-32.907 32.906-32.907 18.145 0 32.907 14.762 32.907 32.907zm-150.667-108.087c0-1.435 1.167-2.602 2.602-2.602h16.163c1.435 0 2.602 1.167 2.602 2.602v45.358c-3.515-.208-7.071-.33-10.683-.33-3.604 0-7.164.114-10.683.327v-45.355zm10.683 479.398c-22.273 0-40.809-16.258-44.392-37.528h88.784c-3.583 21.27-22.119 37.528-44.392 37.528z"/><path d="m437.829 383.861h-5.583l-9.83-71.252c-.566-4.103-4.351-6.968-8.455-6.404-4.104.566-6.971 4.352-6.405 8.455l9.547 69.201h-281.39c-4.142 0-7.5 3.357-7.5 7.5s3.358 7.5 7.5 7.5h302.115c1.435 0 2.602 1.168 2.602 2.603v40.406c0 1.435-1.167 2.602-2.602 2.602h-40.936c-4.142 0-7.5 3.357-7.5 7.5s3.358 7.5 7.5 7.5h40.936c9.706 0 17.602-7.896 17.602-17.602v-40.406c.001-9.706-7.895-17.603-17.601-17.603z"/></g></g></svg>